<svg width="28" height="28" viewBox="0 0 28 28" fill="none" xmlns="http://www.w3.org/2000/svg">
<path fill-rule="evenodd" clip-rule="evenodd" d="M8.94801 2.33325H19.063C23.018 2.33325 25.6663 5.10992 25.6663 9.23992V18.7728C25.6663 22.8899 23.018 25.6666 19.063 25.6666H8.94801C4.99301 25.6666 2.33301 22.8899 2.33301 18.7728V9.23992C2.33301 5.10992 4.99301 2.33325 8.94801 2.33325ZM13.3347 17.4883L18.8763 11.9466C19.273 11.5499 19.273 10.9083 18.8763 10.4999C18.4797 10.1033 17.8263 10.1033 17.4297 10.4999L12.6113 15.3183L10.5697 13.2766C10.173 12.8799 9.51967 12.8799 9.12301 13.2766C8.72634 13.6733 8.72634 14.3149 9.12301 14.7233L11.8997 17.4883C12.098 17.6866 12.3547 17.7799 12.6113 17.7799C12.8797 17.7799 13.1363 17.6866 13.3347 17.4883Z" fill="#42766C"/>
</svg>
