<svg width="24" height="24" viewBox="0 0 24 24" fill="none" xmlns="http://www.w3.org/2000/svg">
<path fill-rule="evenodd" clip-rule="evenodd" d="M6.94801 0.333252H17.063C21.018 0.333252 23.6663 3.10992 23.6663 7.23992V16.7728C23.6663 20.8899 21.018 23.6666 17.063 23.6666H6.94801C2.99301 23.6666 0.333008 20.8899 0.333008 16.7728V7.23992C0.333008 3.10992 2.99301 0.333252 6.94801 0.333252ZM11.3347 15.4883L16.8763 9.94658C17.273 9.54992 17.273 8.90825 16.8763 8.49992C16.4797 8.10325 15.8263 8.10325 15.4297 8.49992L10.6113 13.3183L8.56967 11.2766C8.17301 10.8799 7.51967 10.8799 7.12301 11.2766C6.72634 11.6733 6.72634 12.3149 7.12301 12.7233L9.89967 15.4883C10.098 15.6866 10.3547 15.7799 10.6113 15.7799C10.8797 15.7799 11.1363 15.6866 11.3347 15.4883Z" fill="#42766C"/>
</svg>
